<svg width="33" height="32" viewBox="0 0 33 32" fill="none" xmlns="http://www.w3.org/2000/svg">
<path d="M9.76807 21.3331C10.5339 21.3696 12.328 21.5301 13.3783 21.8801C14.6911 22.3178 17.3167 21.8801 20.0517 21.8801C22.2398 21.8801 23.7714 22.2084 24.209 22.2084" stroke="black" stroke-linecap="round"/>
<circle cx="15.0192" cy="11.5974" r="2.12562" stroke="black"/>
<circle cx="20.9269" cy="11.3778" r="2.12562" stroke="black"/>
<circle cx="15.0191" cy="11.5966" r="1.09401" fill="black"/>
<circle cx="21.1458" cy="11.5966" r="1.09401" fill="black"/>
<circle cx="16.5508" cy="15.7537" r="15.2537" stroke="black"/>
<path d="M20.3799 7.11099C21.1457 6.41812 23.1149 5.51374 24.8653 7.4392" stroke="black" stroke-linecap="round"/>
<path d="M16.2227 6.23585C15.2746 5.47005 12.6344 4.57296 9.65869 7.11106" stroke="black" stroke-linecap="round"/>
<path d="M15.0191 15.9725C14.9097 16.1184 14.6909 16.4977 14.6909 16.8477C14.6909 17.2853 15.2379 17.5041 15.7849 17.5041C16.3319 17.5041 16.6601 17.2853 17.2071 17.6135C17.7541 17.9417 18.1917 17.8323 18.6293 17.6135C19.067 17.3947 19.1764 17.1759 19.614 17.1759C20.0516 17.1759 20.2704 16.7383 20.0516 16.3007C19.9626 16.1228 19.9075 15.975 19.8749 15.8631" stroke="black" stroke-linecap="round"/>
</svg>
