<svg width="32" height="32" viewBox="0 0 32 32" fill="none" xmlns="http://www.w3.org/2000/svg">
<path d="M10.5576 26.1468L11.9798 22.3178C12.1986 21.4791 13.2708 19.8235 15.8089 19.911C18.9815 20.0204 21.2789 18.5982 23.7951 25.928" stroke="black" stroke-linecap="round"/>
<circle cx="16.2464" cy="15.7537" r="15.2537" stroke="black"/>
<path d="M16.5953 11.719C16.5953 13.067 15.5025 14.1597 14.1546 14.1597C13.9378 14.1597 13.7285 14.1316 13.5295 14.0791L13.4019 14.5625L13.5295 14.0791C13.4266 14.0519 13.3263 14.0181 13.2291 13.9783C12.8837 13.8366 12.5773 13.6176 12.332 13.3424C11.9471 12.9107 11.7139 12.3427 11.7139 11.719C11.7139 10.3711 12.8066 9.27832 14.1546 9.27832C15.5025 9.27832 16.5953 10.3711 16.5953 11.719Z" stroke="black"/>
<path d="M22.5555 11.2552C22.5555 12.6032 21.4627 13.6959 20.1148 13.6959C18.7668 13.6959 17.6741 12.6032 17.6741 11.2552C17.6741 9.90725 18.7668 8.81451 20.1148 8.81451C21.4627 8.81451 22.5555 9.90725 22.5555 11.2552Z" stroke="black"/>
<circle cx="14.8242" cy="11.9247" r="0.984607" fill="black"/>
<path d="M20.6225 11.4871C20.6225 12.0309 20.1817 12.4717 19.6379 12.4717C19.0941 12.4717 18.6533 12.0309 18.6533 11.4871C18.6533 10.9433 19.0941 10.5025 19.6379 10.5025C20.1817 10.5025 20.6225 10.9433 20.6225 11.4871Z" fill="black"/>
<path d="M21.8258 13.5657C21.5341 12.6175 20.4036 10.4587 18.2156 9.40845" stroke="black"/>
<path d="M12.3079 13.7845C12.6725 12.727 13.9489 10.5025 16.1369 10.0649" stroke="black"/>
<path d="M19.0908 6.45464C20.2578 8.02271 23.3575 11.1808 26.4207 11.2683" stroke="black" stroke-linecap="round"/>
<path d="M7.71313 12.9093C9.42708 12.3258 13.1613 10.0867 14.3866 5.79823" stroke="black" stroke-linecap="round"/>
<path d="M13.0737 13.1281C13.7301 13.2375 13.8487 13.6437 13.8396 13.7845C13.8396 14.1048 13.6313 14.3367 13.4019 14.5503C13.1726 14.7638 12.7455 14.8785 12.5689 15.0973C12.3079 14.4409 11.9797 14.3158 11.9797 13.6751C11.9797 13.0344 12.3869 13.0136 13.0737 13.1281Z" fill="white"/>
<path d="M13.8396 13.7845L13.3406 13.7519L13.3396 13.7682V13.7845H13.8396ZM13.0737 13.1281L13.1559 12.6349L13.0737 13.1281ZM12.5689 15.0973L12.1043 15.282C12.17 15.4471 12.3184 15.565 12.4941 15.5916C12.6698 15.6182 12.8464 15.5496 12.958 15.4113L12.5689 15.0973ZM13.4019 14.5503L13.0612 14.1844L13.0612 14.1844L13.4019 14.5503ZM14.3385 13.817C14.3657 13.3989 14.0442 12.7829 13.1559 12.6349L12.9915 13.6213C13.2208 13.6595 13.2997 13.7377 13.3219 13.7644C13.3359 13.7812 13.341 13.7937 13.3423 13.7976C13.3451 13.8061 13.338 13.7923 13.3406 13.7519L14.3385 13.817ZM13.1559 12.6349C12.9776 12.6051 12.7971 12.5806 12.6284 12.5754C12.4629 12.5703 12.2733 12.5823 12.0923 12.6507C11.8959 12.725 11.7253 12.8605 11.6145 13.065C11.5115 13.255 11.4797 13.4684 11.4797 13.6751H12.4797C12.4797 13.5614 12.4988 13.5319 12.4937 13.5414C12.4899 13.5484 12.4816 13.5602 12.4683 13.5715C12.4555 13.5824 12.4459 13.5861 12.4461 13.586C12.4527 13.5835 12.4937 13.5717 12.5977 13.5749C12.6985 13.578 12.8265 13.5938 12.9915 13.6213L13.1559 12.6349ZM11.4797 13.6751C11.4797 14.1071 11.5986 14.3861 11.7464 14.6353C11.8871 14.8727 11.9932 15.0025 12.1043 15.282L13.0336 14.9125C12.8837 14.5357 12.6952 14.2747 12.6065 14.1253C12.525 13.9877 12.4797 13.8838 12.4797 13.6751H11.4797ZM12.958 15.4113C12.9563 15.4135 12.9685 15.3985 13.0154 15.3678C13.0615 15.3376 13.1192 15.3059 13.1981 15.2645C13.3289 15.1958 13.5671 15.0797 13.7427 14.9162L13.0612 14.1844C13.0075 14.2344 12.9174 14.2824 12.7332 14.3791C12.5968 14.4507 12.345 14.5786 12.1799 14.7832L12.958 15.4113ZM13.7427 14.9162C13.9703 14.7042 14.3396 14.3399 14.3396 13.7845H13.3396C13.3396 13.8698 13.2923 13.9692 13.0612 14.1844L13.7427 14.9162Z" fill="black"/>
<path d="M10.5575 17.6135C10.7326 17.2635 10.8493 16.7383 10.8857 16.5195C12.308 17.7229 11.2139 18.7075 10.7763 18.7075C10.3387 18.7075 10.3387 18.0511 10.5575 17.6135Z" stroke="black" stroke-linecap="round" stroke-linejoin="round"/>
<path d="M21.9353 16.7383C21.8477 16.2132 22.2635 15.4255 22.4823 15.0973C22.4823 16.0819 23.7301 16.1025 23.3575 16.8477C22.9199 17.7229 22.0447 17.3947 21.9353 16.7383Z" stroke="black" stroke-linecap="round" stroke-linejoin="round"/>
<path d="M22.8102 18.3793C22.5915 19.1452 22.0779 20.8497 23.0291 20.6768C24.2325 20.458 23.3573 19.0358 22.8102 18.3793Z" stroke="black" stroke-linecap="round" stroke-linejoin="round"/>
<path d="M14.4959 15.4255C14.3865 15.8266 14.3646 16.6289 15.1523 16.6289C16.1369 16.6289 16.2463 16.4101 16.9027 16.9571C17.5592 17.5041 17.6686 17.6135 18.325 17.2853C18.9814 16.9571 18.7626 16.7383 19.5284 16.7383C20.0339 16.7383 20.0776 15.9933 20.0159 15.4255" stroke="black" stroke-linecap="round"/>
</svg>
