<svg width="44" height="44" viewBox="0 0 44 44" fill="none" xmlns="http://www.w3.org/2000/svg">
<path d="M18.0361 22.3948C18.0361 22.6954 18.2766 23.2966 19.2385 23.2966C20.4409 23.2966 20.7415 24.499 21.7936 24.499C22.8457 24.499 22.6954 23.5972 24.499 23.5972C25.9419 23.5972 26.4029 23.0962 26.453 22.8457" stroke="black" stroke-linecap="round"/>
<path d="M10.0701 23.8978C10.5711 27.004 13.6472 33.1262 21.9438 32.7655C32.3145 32.3146 34.8696 23.8978 35.0199 22.0942" stroke="black" stroke-linecap="round"/>
<path d="M23.2966 7.81564C24.3487 5.86174 27.2646 3.27657 30.511 8.56715" stroke="black" stroke-linecap="round"/>
<circle cx="21.6432" cy="21.6432" r="21.1432" stroke="black"/>
<path d="M11.2725 9.01801C12.1743 6.3126 15.1201 2.1042 19.6893 6.91381" stroke="black" stroke-linecap="round"/>
<circle cx="16.984" cy="16.0821" r="3.85871" stroke="black"/>
<circle cx="25.7015" cy="16.0821" r="3.85871" stroke="black"/>
<circle cx="18.036" cy="15.9318" r="1.503" fill="black"/>
<circle cx="24.9498" cy="16.2325" r="1.503" fill="black"/>
</svg>
