<svg width="33" height="32" viewBox="0 0 33 32" fill="none" xmlns="http://www.w3.org/2000/svg">
<path d="M13.4001 15.5349C13.2907 15.8266 13.0282 16.4757 12.8531 16.7383C12.6343 17.0665 12.6837 17.5306 13.1813 17.6135C13.8377 17.7229 13.6189 17.0665 14.2753 17.1759C14.9317 17.2853 15.0411 18.1605 16.4634 18.1605C17.8856 18.1605 18.7608 17.0665 18.6514 16.4101" stroke="black" stroke-linecap="round"/>
<path d="M8.57227 23.193C9.0828 22.4636 11.351 21.0706 16.3397 21.3332C20.5615 21.5554 22.6261 22.5245 23.3821 23.193" stroke="black" stroke-linecap="round"/>
<path d="M25.3108 9.84606C24.618 9.00732 22.3789 7.13292 18.9656 6.34523" stroke="black" stroke-linecap="round"/>
<path d="M8.46313 9.40845C9.19247 8.46031 11.5482 6.52027 15.1366 6.34523" stroke="black" stroke-linecap="round"/>
<circle cx="13.4822" cy="11.7199" r="2.44069" stroke="black"/>
<path d="M21.6643 11.6927C21.6643 13.0406 20.5716 14.1334 19.2237 14.1334C17.8757 14.1334 16.783 13.0406 16.783 11.6927C16.783 10.3447 17.8757 9.25197 19.2237 9.25197C20.5716 9.25197 21.6643 10.3447 21.6643 11.6927Z" stroke="black"/>
<path d="M21.5913 13.128C21.1902 12.0705 19.7971 9.91161 17.4341 9.73657" stroke="black" stroke-linecap="round"/>
<circle cx="14.1518" cy="12.1434" r="0.984607" fill="black"/>
<circle cx="18.5276" cy="11.9246" r="0.984607" fill="black"/>
<path d="M11.198 13.128C11.4897 12.0705 12.7077 9.88973 15.2458 9.62717" stroke="black"/>
<circle cx="16.4493" cy="15.7537" r="15.2537" stroke="black"/>
</svg>
