<svg width="27" height="24" viewBox="0 0 27 24" fill="none" xmlns="http://www.w3.org/2000/svg">
<path fill-rule="evenodd" clip-rule="evenodd" d="M13.8107 5.85518C12.2018 3.34188 10.5627 1.6174 8.88469 0.720778C7.10391 -0.230745 5.29598 -0.23988 3.49287 0.691679C2.15558 1.38257 1.25843 2.29199 0.708419 3.33071C0.159672 4.36704 -0.0345622 5.51492 0.00493533 6.67217C0.0836694 8.97903 1.0919 11.3603 2.14949 13.0898C4.26759 16.5536 6.62853 19.112 13.371 23.0129C13.4633 23.0663 13.578 23.0631 13.6671 23.0044C14.4522 22.4883 15.2658 21.6629 15.8982 20.6405C16.7991 20.4918 17.4432 20.2421 17.7832 20.0722C17.7873 20.0701 17.7914 20.0679 17.7955 20.0656C17.7978 20.0643 17.8002 20.0629 17.8025 20.0615C21.615 17.7671 24.0246 14.8486 25.184 12.004C25.7701 10.5659 25.9099 9.0234 25.7936 7.82351C25.7355 7.22442 25.6123 6.69647 25.4389 6.3032C25.3524 6.1069 25.2483 5.93265 25.1241 5.79969C25 5.66687 24.8399 5.55912 24.6452 5.53708C24.2683 5.49441 23.9861 5.71216 23.7786 6.03324C23.7679 5.81538 23.7495 5.617 23.7232 5.43831C23.6709 5.08348 23.5843 4.78258 23.4477 4.55802C23.3059 4.32498 23.099 4.15964 22.8238 4.13011C22.5564 4.10142 22.3235 4.20545 22.1403 4.39743C22.0721 4.46892 22.0103 4.55273 21.9541 4.64714C21.9423 4.51731 21.9281 4.39469 21.9114 4.27932C21.8506 3.85761 21.7542 3.50806 21.607 3.25381C21.4555 2.99195 21.2299 2.80232 20.9223 2.78652C20.6194 2.77095 20.374 2.92898 20.19 3.16682C20.0108 3.39828 19.8692 3.72791 19.7534 4.13182C19.6648 4.44073 19.5876 4.80668 19.5215 5.22882C19.5124 5.19512 19.5032 5.16228 19.4938 5.13029C19.4084 4.83971 19.3021 4.59448 19.1623 4.42116C19.0236 4.24918 18.8325 4.12835 18.5975 4.14077C18.4486 4.12416 18.3041 4.15584 18.1743 4.23567C18.0396 4.31852 17.9355 4.44379 17.8534 4.58585C17.6914 4.86594 17.5786 5.27486 17.4994 5.78463C17.365 6.64894 17.3159 7.8856 17.3482 9.48675C17.1034 9.1772 16.8662 8.93916 16.6358 8.78053C16.4337 8.64134 16.2187 8.55058 15.9955 8.54326C15.7649 8.53571 15.5574 8.61826 15.3812 8.76806C15.2209 8.90434 15.138 9.09835 15.1023 9.29762C15.0664 9.49785 15.0736 9.72542 15.1127 9.96373C15.1911 10.441 15.4047 11.0052 15.7375 11.5725C15.8163 11.7068 15.9891 11.7518 16.1235 11.673C16.2578 11.5942 16.3028 11.4214 16.224 11.2871C15.9175 10.7645 15.7339 10.2658 15.6693 9.87233C15.637 9.67527 15.6363 9.51554 15.6575 9.39717C15.6789 9.27785 15.7181 9.22198 15.7466 9.19776C15.8295 9.12723 15.9035 9.1046 15.977 9.10701C16.0578 9.10966 16.1692 9.14401 16.3159 9.24507C16.6154 9.45129 16.9841 9.88069 17.418 10.5741C17.4858 10.6823 17.6178 10.7315 17.7398 10.694C17.8619 10.6566 17.9436 10.5418 17.9389 10.4142C17.8642 8.35337 17.9056 6.84347 18.0567 5.87126C18.1329 5.38102 18.2331 5.056 18.3417 4.86821C18.3948 4.77633 18.4404 4.73418 18.4698 4.71613C18.4929 4.70193 18.513 4.69745 18.5434 4.70251C18.5694 4.70685 18.5959 4.70751 18.6221 4.70449L18.623 4.70435C18.6309 4.70319 18.6615 4.69868 18.7232 4.77526C18.7946 4.86378 18.8753 5.0263 18.9526 5.28939C19.106 5.8111 19.2191 6.63029 19.2848 7.76268C19.2935 7.91218 19.4175 8.02883 19.5673 8.02837C19.717 8.0279 19.8403 7.91049 19.848 7.76094C19.9296 6.18805 20.0811 5.0352 20.2956 4.28729C20.4033 3.9115 20.5207 3.66105 20.636 3.51205C20.7464 3.36943 20.831 3.34662 20.8934 3.34982C20.9512 3.35279 21.029 3.38113 21.1189 3.5364C21.2132 3.69929 21.2964 3.96606 21.3532 4.35985C21.4435 4.98588 21.4591 5.87067 21.3954 7.02139C21.3691 7.30895 21.348 7.61775 21.3319 7.94744C21.3244 8.10127 21.4417 8.23267 21.5954 8.24262C21.7491 8.25256 21.8823 8.13738 21.8947 7.98387C21.9207 7.66199 21.9418 7.35508 21.9581 7.06324C22.0274 6.31155 22.1312 5.73741 22.2655 5.33341C22.3579 5.05528 22.4569 4.88265 22.5483 4.78686C22.6304 4.70086 22.6971 4.68381 22.7636 4.69095C22.8223 4.69724 22.8908 4.72797 22.9658 4.85122C23.046 4.98295 23.1177 5.19859 23.1651 5.52052C23.2596 6.16168 23.2453 7.13065 23.1114 8.44249C23.0958 8.59571 23.2059 8.73314 23.3589 8.7512C23.5118 8.76927 23.651 8.66128 23.6715 8.50864C23.7935 7.59943 23.9525 6.95367 24.1381 6.55044C24.3313 6.13077 24.4928 6.08748 24.5818 6.09755C24.6002 6.09963 24.645 6.11307 24.7119 6.18473C24.7787 6.25625 24.8518 6.36977 24.9228 6.53074C25.0644 6.85202 25.1778 7.31666 25.2322 7.87793C25.3408 8.99877 25.209 10.4481 24.6617 11.7911C23.5551 14.5061 21.2381 17.3331 17.5213 19.5724C17.2827 19.6906 16.854 19.862 16.2584 19.996C16.6408 19.2337 16.9152 18.3873 17.0116 17.4944C17.1436 16.2715 16.9139 15.0675 16.5642 14.1793C16.3897 13.736 16.1801 13.358 15.9593 13.0922C15.8491 12.9596 15.7282 12.8452 15.5981 12.7671C15.4683 12.689 15.3095 12.6359 15.139 12.6646C15.0666 12.6768 15.0015 12.6986 14.9431 12.7285L14.9463 12.7337C14.7506 12.8046 14.62 12.9571 14.5349 13.1452C14.4971 13.0434 14.4584 12.9489 14.419 12.8617C14.3016 12.6021 14.1675 12.3853 14.0075 12.2375C13.8403 12.0829 13.6303 11.9928 13.3932 12.0342C13.1639 12.0742 12.9964 12.2173 12.8926 12.4157C12.8792 12.4413 12.8668 12.468 12.8554 12.4955C12.8387 12.4556 12.8219 12.4169 12.805 12.3793C12.667 12.0715 12.5152 11.8204 12.3413 11.6525C12.1611 11.4785 11.93 11.3716 11.6683 11.4324C11.4112 11.4922 11.2481 11.6835 11.1562 11.9147C11.0671 12.1384 11.0315 12.4266 11.0315 12.7596C11.0315 12.948 11.043 13.1585 11.0658 13.3907C10.9657 13.2523 10.8597 13.1369 10.7456 13.0565C10.6233 12.9702 10.4765 12.9158 10.3211 12.9328L10.318 12.9161C10.2709 12.9214 10.2256 12.9309 10.1842 12.9448C10.0736 12.9645 10.0464 12.9953 9.98265 13.0671C9.9732 13.0778 9.96295 13.0893 9.9515 13.1019C9.85903 13.2034 9.8042 13.3307 9.77153 13.4617C9.70732 13.7191 9.71182 14.061 9.76247 14.465C9.8445 15.1191 10.0583 16.0108 10.399 17.1345C10.1995 17.003 10.0127 16.9061 9.83945 16.8478C9.65029 16.7841 9.4562 16.7593 9.27143 16.8059C9.07957 16.8543 8.92905 16.9718 8.82152 17.1339C8.71106 17.3004 8.70363 17.4925 8.73882 17.663C8.77383 17.8327 8.85535 18.0072 8.96145 18.1764C9.17445 18.5161 9.5193 18.8861 9.94037 19.2329C10.7807 19.9252 11.9847 20.5742 13.1986 20.7037C13.9255 20.7812 14.5831 20.7796 15.1628 20.7313C14.663 21.4423 14.0756 22.0289 13.5001 22.4357C6.93591 18.62 4.67249 16.1346 2.63069 12.7956C1.60042 11.1107 0.642816 8.82576 0.568656 6.65293C0.531707 5.57034 0.71426 4.52503 1.2069 3.59465C1.69828 2.66666 2.50711 1.83584 3.75177 1.1928C5.39125 0.345782 7.00296 0.354833 8.61887 1.21826C10.2535 2.09171 11.9082 3.84909 13.5726 6.53562C13.6243 6.61902 13.7156 6.66957 13.8137 6.66911C13.9118 6.66866 14.0026 6.61726 14.0535 6.53339C15.5074 4.13716 17.0555 2.61552 18.6843 1.9163C21.1427 0.860907 23.0463 1.57766 23.613 1.90194C24.1928 2.23369 25.1873 3.0811 25.5803 4.51289C25.6215 4.66309 25.7767 4.75144 25.9269 4.71022C26.0771 4.669 26.1654 4.51381 26.1242 4.36361C25.6819 2.75189 24.5659 1.79728 23.8932 1.41236C23.2074 1.01998 21.1165 0.258329 18.4618 1.398C16.7769 2.12129 15.2304 3.62176 13.8107 5.85518ZM10.3529 13.5046C10.3428 13.5229 10.3302 13.5524 10.3188 13.5982C10.2803 13.7524 10.2739 14.0104 10.3221 14.3948C10.4175 15.1552 10.7108 16.2991 11.2116 17.8374C11.2512 17.9588 11.2042 18.0917 11.0971 18.1612C10.99 18.2308 10.8495 18.2197 10.7547 18.1342C10.2797 17.7061 9.91711 17.469 9.65958 17.3824C9.53425 17.3402 9.4556 17.3412 9.40937 17.3529C9.37023 17.3627 9.33151 17.3855 9.29154 17.4458C9.2911 17.4464 9.27493 17.47 9.29123 17.549C9.30783 17.6295 9.35356 17.74 9.43932 17.8767C9.61005 18.149 9.9074 18.475 10.299 18.7976C11.084 19.4443 12.1873 20.0285 13.2584 20.1428C14.1118 20.2338 14.8607 20.2095 15.4897 20.13L15.5188 20.1446L15.5227 20.1258L15.5506 20.1221C16.0094 19.3223 16.3459 18.406 16.4508 17.4339C16.5718 16.3128 16.36 15.2003 16.0394 14.3859C15.8788 13.9779 15.696 13.658 15.5255 13.4527C15.4399 13.3498 15.3654 13.2853 15.3075 13.2505C15.2842 13.2365 15.2668 13.2291 15.2546 13.2252C15.2267 13.241 15.1956 13.2523 15.1622 13.258C15.1352 13.2625 15.0302 13.2914 14.9761 13.6451C14.9248 13.9805 14.9435 14.4951 15.0476 15.206C15.07 15.3584 14.9659 15.5005 14.8139 15.5252C14.6619 15.55 14.5181 15.4482 14.491 15.2966C14.3088 14.2789 14.1114 13.5505 13.9051 13.0941C13.8013 12.8646 13.7048 12.7258 13.6247 12.6517C13.5518 12.5843 13.5121 12.586 13.4902 12.5899C13.4604 12.5951 13.4285 12.6082 13.3925 12.677C13.3502 12.7578 13.3137 12.8994 13.3043 13.1253C13.2907 13.453 13.3357 13.9034 13.4451 14.4825C13.4959 14.7066 13.5463 14.9429 13.5962 15.1913C13.6265 15.3423 13.5301 15.4897 13.3796 15.5225C13.2291 15.5552 13.0802 15.4611 13.0451 15.3112C12.986 15.0588 12.9351 14.8207 12.8927 14.5971C12.6927 13.7174 12.4912 13.0578 12.2904 12.6101C12.1638 12.328 12.0474 12.1528 11.9495 12.0582C11.8578 11.9697 11.8135 11.9778 11.7961 11.9818C11.774 11.9869 11.7279 12.0035 11.6803 12.1232C11.6297 12.2502 11.5956 12.4558 11.5956 12.7596C11.5956 13.3634 11.7291 14.2608 12.007 15.4643C12.0407 15.6102 11.9544 15.757 11.8106 15.7987C11.6667 15.8403 11.5154 15.7622 11.466 15.6209C11.1724 14.7815 10.9122 14.1931 10.688 13.8386C10.5746 13.6594 10.4839 13.5621 10.4206 13.5175C10.4008 13.5035 10.3883 13.4975 10.3816 13.4952C10.3721 13.4989 10.3625 13.502 10.3529 13.5046ZM15.5506 20.1221L15.5293 20.0943L15.5457 20.0156L15.5506 20.1221ZM10.3751 13.494C10.375 13.4937 10.3764 13.4936 10.3799 13.4946C10.377 13.4949 10.3752 13.4944 10.3751 13.494Z" fill="#FFCA2A"/>
</svg>
