<svg width="126" height="82" viewBox="0 0 126 82" fill="none" xmlns="http://www.w3.org/2000/svg">
<path d="M81.4741 30.6213C88.0861 20.2843 98.1319 4.24676 102.932 5.62539C109.791 7.59487 90.9295 29.2646 95.3375 32.4677C95.3375 32.4677 111.601 12.9808 116.822 15.5083C122.044 18.0358 98.6435 34.1718 98.6435 37.6731C98.6435 41.1744 122.076 21.9733 124.751 27.9516C127.427 33.9299 100.769 43.505 100.964 48.3657C101.158 53.2265 118.564 45.0614 119.723 49.3368C120.882 53.6122 72.1194 59.8352 60.7103 82" fill="#8AF1EB"/>
<path d="M81.4741 28.3503C88.0861 18.0133 98.1319 1.97573 102.932 3.35437C109.791 5.32384 90.9295 26.9935 95.3375 30.1967C95.3375 30.1967 111.601 10.7098 116.822 13.2373C122.044 15.7648 98.6435 31.9008 98.6435 35.4021C98.6435 38.9034 122.076 19.7022 124.751 25.6806C127.427 31.6589 100.769 41.2339 100.964 46.0947C101.158 50.9555 118.564 42.7904 119.723 47.0658C120.882 51.3412 72.1194 57.5642 60.7103 79.729" stroke="black" stroke-miterlimit="10" stroke-linecap="round" stroke-linejoin="round"/>
<path fill-rule="evenodd" clip-rule="evenodd" d="M65.0323 22.3696C60.1106 16.7892 54.5446 10.9382 52.0893 12.6621C47.1251 16.1458 53.0738 30.1141 53.0738 30.1141L53.0738 30.114C53.0738 30.114 57.2374 42.2262 68.4757 51.5742C68.4757 46.1176 76.3432 33.0299 76.3432 33.0299C76.3432 33.0299 86.4896 17.951 81.2941 14.5047C78.573 12.6998 71.7101 17.4459 65.186 22.2701L65.0323 22.3696Z" fill="#B794F4"/>
<path d="M65.2524 25.6545C60.2934 20.0225 55.2163 14.7361 52.7355 16.478C47.7712 19.9617 54.2817 34.3084 54.2817 34.3084" stroke="black" stroke-miterlimit="10" stroke-linecap="round" stroke-linejoin="round"/>
<path d="M24.5719 3.35193C31.502 1.37989 47.8362 36.1054 52.0421 36.8439L55.6075 70.6449C44.0784 48.4847 6.43711 51.332 7.60816 47.0569C8.77921 42.7819 26.3614 50.9463 26.5593 46.0859C26.7572 41.2256 -2.32254 34.3084 1.20317 27.1204C2.97658 20.5916 27.5794 40.3449 27.5794 36.8439C27.5794 33.3429 5.26331 15.7613 10.5385 13.234C15.8138 10.7068 32.2442 30.192 32.2442 30.192C36.6975 26.9891 17.6418 5.32398 24.5719 3.35193Z" fill="#DE7CE0"/>
<path d="M54.1839 34.0559C54.1839 34.0559 57.3975 46.6731 69.1217 55.3901C69.1217 49.9334 76.9892 36.8457 76.9892 36.8457C76.9892 36.8457 87.1356 21.7669 81.94 18.3206C76.7445 14.8743 56.4491 35.3113 52.2432 34.5728C48.0373 33.8343 31.703 -0.891137 24.773 1.08091C17.8429 3.05295 36.8986 24.7181 32.4453 27.9209C32.4453 27.9209 16.0148 8.43573 10.7396 10.963C5.46436 13.4903 27.7804 31.0718 27.7804 34.5728C27.7804 38.0738 3.17763 18.3206 1.40422 24.8494C-2.12149 32.0374 26.9583 38.9545 26.7604 43.8149C26.5624 48.6753 8.98026 40.5108 7.80921 44.7859C6.63816 49.0609 44.2795 46.2136 55.8086 68.3738" stroke="black" stroke-miterlimit="10" stroke-linecap="round" stroke-linejoin="round"/>
<path d="M67.902 58.1542C59.7263 52.0981 53.8973 41.5 52.0048 36.9579L55.0328 69.8879L60.3319 77.8365L67.902 58.1542Z" fill="#DE7CE0"/>
</svg>
