<svg width="75" height="60" viewBox="0 0 75 60" fill="none" xmlns="http://www.w3.org/2000/svg">
<path fill-rule="evenodd" clip-rule="evenodd" d="M71.6228 28.9664C81.1133 6.98686 59.7667 -0.770055 52.8522 2.56356C45.9377 5.89718 38.9531 16.5741 38.9531 16.5741C38.9531 16.5741 26.0263 -4.30132 12.7454 2.56356C-0.535537 9.42844 4.20651 24.6572 9.57625 33.4428C14.946 42.2285 22.6671 48.734 39.9307 58.727C43.5154 56.2135 62.1323 50.9459 71.6228 28.9664Z" fill="#019C92"/>
<path fill-rule="evenodd" clip-rule="evenodd" d="M35.5374 15.0664C31.3972 8.59923 27.1797 4.16185 22.8618 1.85468C18.2796 -0.593745 13.6275 -0.617253 8.98775 1.77981C5.54668 3.5576 3.23815 5.89767 1.82288 8.57048C0.410864 11.2372 -0.0889343 14.1908 0.0126995 17.1686C0.215296 23.1046 2.80964 29.2321 5.531 33.6824C10.9812 42.5953 17.0564 49.1785 34.4058 59.2161C34.6435 59.3536 34.9384 59.3452 35.1679 59.1944C37.188 57.8663 39.2815 55.7423 40.9089 53.1115C43.2269 52.7289 44.8842 52.0863 45.7591 51.6491C45.7761 51.6407 45.7927 51.6315 45.8089 51.6217C55.619 45.7177 61.8194 38.208 64.8028 30.8883C66.3109 27.188 66.6706 23.2188 66.3713 20.1312C66.2219 18.5897 65.9048 17.2312 65.4587 16.2192C65.236 15.7141 64.9683 15.2657 64.6487 14.9236C64.3294 14.5818 63.9174 14.3046 63.4164 14.2479C62.4465 14.1381 61.7203 14.6984 61.1865 15.5246C61.1589 14.964 61.1115 14.4535 61.0437 13.9937C60.9092 13.0807 60.6865 12.3064 60.3349 11.7286C59.97 11.1289 59.4378 10.7035 58.7296 10.6275C58.0415 10.5537 57.4423 10.8213 56.9708 11.3153C56.7952 11.4993 56.6363 11.715 56.4917 11.9579C56.4613 11.6238 56.4247 11.3083 56.3819 11.0114C56.2254 9.9263 55.9774 9.02683 55.5986 8.3726C55.2086 7.69879 54.6281 7.21086 53.8367 7.17019C53.0572 7.13013 52.4259 7.53677 51.9522 8.14877C51.4913 8.74436 51.1268 9.59255 50.8288 10.6319C50.6008 11.4268 50.4023 12.3684 50.2322 13.4546C50.2088 13.3679 50.1851 13.2834 50.1609 13.2011C49.941 12.4534 49.6675 11.8224 49.3078 11.3764C48.9509 10.9339 48.4594 10.6229 47.8546 10.6549C47.4714 10.6122 47.0996 10.6937 46.7656 10.8991C46.419 11.1123 46.1512 11.4346 45.9398 11.8002C45.5231 12.5209 45.2327 13.5731 45.0289 14.8849C44.6832 17.1089 44.5567 20.291 44.6399 24.411C44.0099 23.6145 43.3996 23.002 42.8068 22.5938C42.2868 22.2357 41.7335 22.0021 41.1591 21.9833C40.5659 21.9638 40.0318 22.1763 39.5785 22.5617C39.1661 22.9124 38.9527 23.4116 38.8608 23.9244C38.7684 24.4396 38.787 25.0252 38.8876 25.6384C39.0893 26.8664 39.639 28.3182 40.4953 29.7779C40.6981 30.1236 41.1427 30.2395 41.4884 30.0367C41.8341 29.8339 41.95 29.3893 41.7472 29.0436C40.9584 27.699 40.4861 26.4157 40.3199 25.4032C40.2366 24.8961 40.2348 24.4851 40.2894 24.1805C40.3444 23.8735 40.4454 23.7297 40.5187 23.6674C40.7321 23.4859 40.9225 23.4277 41.1115 23.4339C41.3194 23.4407 41.606 23.5291 41.9836 23.7892C42.7542 24.3198 43.703 25.4247 44.8196 27.2089C44.9939 27.4873 45.3335 27.614 45.6476 27.5176C45.9617 27.4213 46.1718 27.1259 46.16 26.7976C45.9678 21.4947 46.0742 17.6094 46.463 15.1078C46.6591 13.8463 46.9169 13.0099 47.1963 12.5267C47.333 12.2903 47.4504 12.1819 47.5259 12.1354C47.5853 12.0989 47.6371 12.0874 47.7152 12.1004C47.7822 12.1115 47.8504 12.1132 47.9178 12.1055L47.9203 12.1051C47.9406 12.1021 48.0192 12.0905 48.1781 12.2876C48.3618 12.5153 48.5694 12.9335 48.7684 13.6105C49.1631 14.953 49.4541 17.0609 49.6232 19.9747C49.6455 20.3594 49.9646 20.6596 50.3499 20.6584C50.7353 20.6572 51.0525 20.355 51.0724 19.9702C51.2822 15.9229 51.6721 12.9564 52.2239 11.0319C52.5012 10.065 52.8033 9.42052 53.1 9.03711C53.384 8.67013 53.6017 8.61142 53.7622 8.61967C53.9109 8.62731 54.1112 8.70022 54.3425 9.09977C54.5852 9.51891 54.7992 10.2053 54.9454 11.2186C55.1777 12.8295 55.2178 15.1062 55.0541 18.0672C54.9864 18.8072 54.932 19.6018 54.8906 20.4501C54.8713 20.846 55.1731 21.1841 55.5686 21.2097C55.9641 21.2353 56.3069 20.9389 56.3388 20.5439C56.4057 19.7156 56.4601 18.9259 56.5019 18.1749C56.6802 16.2407 56.9473 14.7633 57.2929 13.7238C57.5307 13.0081 57.7855 12.5639 58.0208 12.3174C58.2319 12.0961 58.4036 12.0522 58.5747 12.0706C58.7257 12.0868 58.902 12.1659 59.095 12.483C59.3013 12.822 59.4858 13.3769 59.6078 14.2053C59.8509 15.8551 59.8141 18.3484 59.4696 21.724C59.4294 22.1182 59.7129 22.4719 60.1065 22.5183C60.5 22.5648 60.8581 22.287 60.9108 21.8942C61.2248 19.5547 61.6339 17.893 62.1115 16.8554C62.6086 15.7755 63.0242 15.6641 63.2532 15.69C63.3005 15.6954 63.4158 15.73 63.588 15.9144C63.7599 16.0984 63.948 16.3905 64.1306 16.8047C64.4951 17.6314 64.7867 18.827 64.9267 20.2713C65.2062 23.1554 64.8672 26.8847 63.4587 30.3405C60.6113 37.3268 54.6492 44.601 45.0854 50.3632C44.4713 50.6672 43.3681 51.1084 41.8358 51.4532C42.8196 49.4916 43.5258 47.3136 43.7738 45.0161C44.1134 41.8695 43.5224 38.7712 42.6227 36.4857C42.1736 35.345 41.6342 34.3724 41.066 33.6886C40.7825 33.3474 40.4713 33.053 40.1367 32.8519C39.8025 32.651 39.3939 32.5143 38.9552 32.5882C38.7689 32.6196 38.6015 32.6758 38.4512 32.7526L38.4593 32.7659C37.9557 32.9485 37.6198 33.341 37.4007 33.8249C37.3033 33.5631 37.204 33.3199 37.1026 33.0955C36.8005 32.4274 36.4553 31.8697 36.0437 31.4893C35.6134 31.0915 35.073 30.8597 34.4629 30.9662C33.8728 31.0692 33.4418 31.4373 33.1749 31.9477C33.1404 32.0138 33.1084 32.0823 33.079 32.1531C33.036 32.0504 32.9928 31.9508 32.9495 31.8542C32.5943 31.0622 32.2036 30.416 31.7562 29.984C31.2926 29.5362 30.6979 29.2611 30.0245 29.4177C29.363 29.5715 28.9432 30.0638 28.7066 30.6586C28.4776 31.2344 28.3859 31.976 28.3859 32.8328C28.3859 33.3176 28.4156 33.8591 28.4743 34.4566C28.2166 34.1006 27.9437 33.8035 27.6502 33.5966C27.3355 33.3748 26.9577 33.2346 26.5579 33.2784L26.5501 33.2353C26.4288 33.249 26.3122 33.2733 26.2057 33.3091C25.9212 33.36 25.851 33.4391 25.6871 33.6239C25.6628 33.6513 25.6364 33.6811 25.6069 33.7134C25.369 33.9746 25.2279 34.3022 25.1438 34.6392C24.9786 35.3015 24.9902 36.1814 25.1205 37.2208C25.3316 38.904 25.8818 41.1986 26.7583 44.0901C26.245 43.7517 25.7645 43.5022 25.3186 43.3522C24.8319 43.1884 24.3324 43.1246 23.857 43.2445C23.3633 43.3691 22.976 43.6715 22.6993 44.0886C22.415 44.517 22.3959 45.0111 22.4865 45.4499C22.5766 45.8865 22.7863 46.3356 23.0593 46.7709C23.6074 47.645 24.4948 48.5971 25.5783 49.4897C27.7406 51.2711 30.8387 52.9409 33.9622 53.2741C35.8327 53.4736 37.5247 53.4695 39.0165 53.3451C37.7305 55.1748 36.219 56.6841 34.738 57.731C17.8473 47.9126 12.0231 41.517 6.76923 32.9252C4.11816 28.5899 1.65408 22.7102 1.46325 17.1191C1.36817 14.3334 1.83791 11.6437 3.10556 9.24966C4.36996 6.86178 6.45122 4.72393 9.65394 3.06928C13.8726 0.889758 18.0198 0.913047 22.1778 3.1348C26.3841 5.38232 30.6419 9.90438 34.9248 16.8173C35.0577 17.0319 35.2926 17.162 35.545 17.1608C35.7975 17.1596 36.0311 17.0273 36.1621 16.8115C39.9033 10.6456 43.8868 6.73017 48.0778 4.93098C54.4038 2.21526 59.302 4.05958 60.7604 4.89401C62.2523 5.74766 64.8113 7.92819 65.8224 11.6124C65.9285 11.9989 66.3278 12.2263 66.7143 12.1202C67.1008 12.0141 67.3281 11.6148 67.2221 11.2283C66.0839 7.08108 63.2122 4.62471 61.4812 3.63425C59.7165 2.62458 54.3364 0.664724 47.5053 3.59729C43.1699 5.45844 39.1903 9.3194 35.5374 15.0664ZM26.6397 34.7497C26.6137 34.7969 26.5814 34.8728 26.5521 34.9905C26.4531 35.3873 26.4366 36.0512 26.5606 37.0402C26.806 38.9969 27.5607 41.9403 28.8495 45.8987C28.9512 46.2112 28.8303 46.553 28.5547 46.732C28.2791 46.911 27.9177 46.8825 27.6736 46.6625C26.4515 45.5609 25.5184 44.9508 24.8558 44.7278C24.5333 44.6193 24.3309 44.6219 24.2119 44.6519C24.1112 44.6773 24.0116 44.7359 23.9087 44.8909C23.9076 44.8926 23.866 44.9534 23.9079 45.1566C23.9507 45.3637 24.0683 45.6479 24.289 45.9999C24.7283 46.7005 25.4935 47.5393 26.5011 48.3694C28.5211 50.0335 31.3599 51.5369 34.1161 51.8309C36.312 52.0651 38.239 52.0026 39.8576 51.7981L39.9325 51.8355L39.9426 51.7871L40.0143 51.7777C41.1949 49.7197 42.0608 47.3618 42.3307 44.8604C42.6421 41.9757 42.0972 39.1131 41.2721 37.0174C40.8588 35.9675 40.3886 35.1444 39.9497 34.6161C39.7296 34.3512 39.5379 34.1854 39.3889 34.0958C39.329 34.0598 39.2842 34.0408 39.2528 34.0307C39.181 34.0715 39.1009 34.1006 39.0148 34.1151C38.9455 34.1268 38.6753 34.2013 38.5361 35.1112C38.4041 35.9743 38.452 37.2984 38.7201 39.1277C38.7775 39.5198 38.5097 39.8855 38.1186 39.9492C37.7274 40.0129 37.3575 39.7509 37.2877 39.3608C36.8189 36.742 36.311 34.8679 35.7801 33.6935C35.5131 33.103 35.2648 32.7458 35.0585 32.5551C34.8709 32.3817 34.769 32.3861 34.7124 32.396C34.6358 32.4093 34.5537 32.4432 34.4611 32.6203C34.3524 32.8281 34.2584 33.1924 34.2342 33.7737C34.1992 34.6169 34.3149 35.7759 34.5965 37.2661C34.7273 37.8426 34.8569 38.4507 34.9853 39.09C35.0634 39.4785 34.8153 39.8578 34.428 39.942C34.0408 40.0263 33.6576 39.7842 33.5672 39.3983C33.4152 38.7489 33.2842 38.1362 33.1751 37.5609C32.6605 35.2974 32.1418 33.6001 31.6252 32.4481C31.2996 31.7221 31.0001 31.2714 30.748 31.028C30.5121 30.8002 30.398 30.821 30.3532 30.8314C30.2966 30.8446 30.1777 30.8871 30.0553 31.195C29.9252 31.522 29.8373 32.051 29.8373 32.8328C29.8373 34.3864 30.1808 36.6955 30.896 39.7924C30.9827 40.1678 30.7608 40.5456 30.3906 40.6527C30.0204 40.7599 29.6311 40.559 29.5039 40.1952C28.7484 38.0355 28.079 36.5214 27.5019 35.6093C27.2101 35.1481 26.9767 34.8976 26.814 34.7829C26.7629 34.7469 26.7309 34.7315 26.7135 34.7255C26.6891 34.735 26.6645 34.743 26.6397 34.7497ZM40.0143 51.7777L39.9595 51.706L40.0017 51.5035L40.0143 51.7777ZM26.6969 34.7226C26.6965 34.7217 26.7003 34.7214 26.7092 34.7241C26.7016 34.7247 26.6972 34.7234 26.6969 34.7226Z" fill="#FFCA2A"/>
</svg>
