<svg width="65" height="25" viewBox="0 0 65 25" fill="none" xmlns="http://www.w3.org/2000/svg">
<path fill-rule="evenodd" clip-rule="evenodd" d="M7.19716 17.3331C9.39051 17.3331 11.0777 16.8534 12.2587 15.894C13.4398 14.9345 14.0303 13.6535 14.0303 12.051C14.0303 10.2797 13.4925 9.04086 12.4169 8.33446C11.3413 7.62806 9.72795 7.16943 7.57678 6.95856C6.20594 6.83204 5.24635 6.64753 4.69801 6.40504C4.14967 6.16254 3.87551 5.69337 3.87551 4.99751C3.87551 3.85884 4.86673 3.2895 6.84918 3.2895C8.51528 3.2895 9.65414 3.83775 10.2657 4.93425C10.4766 5.27164 10.6612 5.46669 10.8194 5.5194C10.9775 5.57212 11.2359 5.52467 11.5944 5.37707L13.018 4.80773C13.6929 4.49143 13.8616 4.01699 13.5241 3.38439C12.4064 1.12813 10.1497 0 6.75428 0C4.6242 0 3.00555 0.458632 1.89833 1.3759C0.791109 2.29316 0.237499 3.532 0.237499 5.0924C0.237499 5.89369 0.364039 6.58955 0.617117 7.17997C0.870196 7.77039 1.18654 8.2343 1.56616 8.57168C1.94578 8.90907 2.44139 9.19373 3.053 9.42569C3.66461 9.65764 4.22876 9.82106 4.74546 9.91595C5.26217 10.0108 5.88959 10.1005 6.62774 10.1848C8.04076 10.3324 9.02671 10.5327 9.5856 10.7858C10.1445 11.0388 10.4239 11.5133 10.4239 12.2091C10.4239 13.4532 9.30615 14.0753 7.07062 14.0753C5.17253 14.0753 3.98096 13.4954 3.49589 12.3356C3.34826 11.9772 3.17427 11.7557 2.97391 11.6714C2.77356 11.5871 2.51521 11.6081 2.19886 11.7347L0.775292 12.1775C0.100415 12.4094 -0.110484 12.8522 0.142595 13.5059C1.13382 16.0574 3.48534 17.3331 7.19716 17.3331ZM23.0147 17.3331C25.5455 17.3331 27.4436 17.059 28.709 16.5108C29.1518 16.321 29.4524 16.1101 29.6106 15.8782C29.7687 15.6462 29.8478 15.2561 29.8478 14.7079V6.51574C29.8478 2.17191 27.5912 0 23.078 0C19.8512 0 17.6684 1.0965 16.5295 3.2895C16.1921 3.9221 16.3714 4.39654 17.0673 4.71284L18.3327 5.25055C18.6913 5.37707 18.9496 5.41397 19.1078 5.36125C19.266 5.30854 19.461 5.11349 19.693 4.7761C20.3468 3.76395 21.454 3.25787 23.0147 3.25787C24.1535 3.25787 24.9655 3.52145 25.4506 4.04862C25.9356 4.57578 26.1782 5.35598 26.1782 6.38922V7.27486C24.3855 7.16943 23.3732 7.11671 23.1412 7.11671C20.5683 7.11671 18.7282 7.49627 17.6209 8.25538C16.5137 9.0145 15.9601 10.3324 15.9601 12.2091C15.9601 13.9593 16.4663 15.2508 17.4786 16.0838C18.4909 16.9167 20.3363 17.3331 23.0147 17.3331ZM20.3099 13.7748C20.7212 14.1227 21.5068 14.2967 22.6667 14.2967C24.0165 14.2967 25.071 14.2123 25.8302 14.0436C26.0622 13.9593 26.1782 13.8117 26.1782 13.6008V10.2797C23.9637 10.1742 22.8143 10.1215 22.73 10.1215C21.5911 10.1215 20.8003 10.2902 20.3574 10.6276C19.9145 10.965 19.693 11.4816 19.693 12.1775C19.693 12.8944 19.8987 13.4268 20.3099 13.7748ZM40.1606 24.2917C42.5437 24.2917 44.2995 23.6854 45.4278 22.473C46.5561 21.2605 47.1203 19.5683 47.1203 17.3964V1.42332C47.1203 1.06485 47.0464 0.81708 46.8988 0.680017C46.7512 0.542954 46.4981 0.474423 46.1396 0.474423H44.4313C44.0728 0.474423 43.8197 0.542954 43.6721 0.680017C43.5244 0.81708 43.4506 1.06485 43.4506 1.42332V12.7468C42.3118 13.042 41.2256 13.1896 40.1922 13.1896C37.8934 13.1896 36.744 12.1458 36.744 10.0583V1.42332C36.744 1.06485 36.6755 0.81708 36.5384 0.680017C36.4013 0.542954 36.1535 0.474423 35.795 0.474423H34.0551C33.6965 0.474423 33.4435 0.542954 33.2958 0.680017C33.1482 0.81708 33.0744 1.06485 33.0744 1.42332V10.1848C33.0744 12.2302 33.6227 13.8011 34.7194 14.8976C35.8161 15.9941 37.4716 16.5424 39.6861 16.5424C40.8882 16.5424 42.143 16.3948 43.4506 16.0996V17.5862C43.4506 19.8635 42.3328 21.0022 40.0973 21.0022C38.5578 21.0022 37.4505 20.4645 36.7757 19.3891C36.5437 19.0517 36.317 18.8566 36.0955 18.8039C35.8741 18.7512 35.5735 18.8197 35.1939 19.0095L33.9918 19.6737C33.2747 20.0322 33.1377 20.5594 33.5805 21.2552C34.8248 23.2795 37.0182 24.2917 40.1606 24.2917ZM63.4439 16.2261C61.588 16.9641 59.5212 17.3331 57.2435 17.3331C55.029 17.3331 53.3735 16.7849 52.2768 15.6884C51.1801 14.5919 50.6318 13.0209 50.6318 10.9755V1.42332C50.6318 1.06485 50.7056 0.81708 50.8532 0.680017C51.0009 0.542954 51.254 0.474423 51.6125 0.474423H53.3524C53.7109 0.474423 53.9587 0.542954 54.0958 0.680017C54.2329 0.81708 54.3014 1.06485 54.3014 1.42332V10.849C54.3014 12.9366 55.4508 13.9804 57.7496 13.9804C58.8463 13.9804 59.8165 13.8538 60.66 13.6008C60.892 13.5165 61.008 13.3372 61.008 13.0631V1.42332C61.008 1.06485 61.0818 0.81708 61.2295 0.680017C61.3771 0.542954 61.6302 0.474423 61.9887 0.474423H63.697C64.0555 0.474423 64.3086 0.542954 64.4562 0.680017C64.6039 0.81708 64.6777 1.06485 64.6777 1.42332V14.4548C64.6777 14.9609 64.5986 15.3299 64.4404 15.5618C64.2822 15.7938 63.9501 16.0152 63.4439 16.2261Z" fill="#019C92"/>
</svg>
