<svg width="32" height="32" viewBox="0 0 32 32" fill="none" xmlns="http://www.w3.org/2000/svg">
<path d="M13.1282 16.3008C13.1282 16.5196 13.3032 16.9572 14.0034 16.9572C14.8786 16.9572 15.0974 17.8324 15.8632 17.8324C16.629 17.8324 16.5196 17.176 17.8324 17.176C18.8827 17.176 19.2182 16.8113 19.2546 16.629" stroke="black" stroke-linecap="round"/>
<path d="M7.32983 17.3947C7.6945 19.6557 9.93357 24.112 15.9725 23.8494C23.5212 23.5212 25.381 17.3947 25.4904 16.0819" stroke="black" stroke-linecap="round"/>
<path d="M16.9573 5.68888C17.7231 4.26667 19.8455 2.38498 22.2085 6.23589" stroke="black" stroke-linecap="round"/>
<circle cx="15.7537" cy="15.7537" r="15.2537" stroke="black"/>
<path d="M8.20508 6.56406C8.86148 4.59485 11.0057 1.53162 14.3315 5.03245" stroke="black" stroke-linecap="round"/>
<circle cx="12.3623" cy="11.7059" r="2.67262" stroke="black"/>
<circle cx="18.7075" cy="11.7059" r="2.67262" stroke="black"/>
<circle cx="13.1279" cy="11.5964" r="1.09401" fill="black"/>
<circle cx="18.1604" cy="11.8153" r="1.09401" fill="black"/>
</svg>
