<svg width="33" height="32" viewBox="0 0 33 32" fill="none" xmlns="http://www.w3.org/2000/svg">
<circle cx="14.7924" cy="11.7058" r="2.45382" stroke="black"/>
<circle cx="20.6999" cy="11.487" r="2.45382" stroke="black"/>
<circle cx="15.5581" cy="11.5964" r="1.09401" fill="black"/>
<path d="M19.934 15.5349C19.934 15.6443 19.9559 15.885 20.0434 15.9725C20.1529 16.0819 20.2623 16.5195 19.934 16.7383C19.6058 16.9571 19.2776 16.7383 18.9494 17.0665C18.6212 17.3947 18.0742 17.3947 17.5272 17.1759C17.073 16.9942 15.7768 17.1978 15.4486 17.0665C15.2663 16.9936 14.9016 16.7164 14.9016 16.1913C14.9016 15.6662 14.9745 15.389 15.011 15.3161" stroke="black" stroke-linecap="round"/>
<path d="M9.65039 21.0049C10.5256 22.3177 12.9105 24.1776 17.199 24.1776C20.683 24.1776 22.9587 22.3966 24.0615 21.0049" stroke="black" stroke-linecap="round"/>
<circle cx="20.5906" cy="11.3776" r="1.09401" fill="black"/>
<path d="M19.7156 6.23581C20.8461 5.83468 23.5008 5.36061 25.0762 6.67342" stroke="black" stroke-linecap="round"/>
<circle cx="16.6522" cy="15.7537" r="15.2537" stroke="black"/>
<path d="M10.7446 6.45462C11.3281 5.87115 13.1733 4.87925 15.8865 5.57941" stroke="black" stroke-linecap="round"/>
</svg>
