<svg width="33" height="32" viewBox="0 0 33 32" fill="none" xmlns="http://www.w3.org/2000/svg">
<path d="M20.0674 5.25125C20.3227 6.56406 21.599 9.47412 24.6622 10.6119" stroke="black" stroke-linecap="round"/>
<path d="M6.06421 11.4871C7.88756 10.6484 11.578 8.18321 11.7531 5.03247" stroke="black" stroke-linecap="round"/>
<circle cx="12.7244" cy="11.719" r="2.44069" stroke="black"/>
<path d="M20.9065 11.9116C20.9065 13.2595 19.8138 14.3523 18.4658 14.3523C17.1179 14.3523 16.0251 13.2595 16.0251 11.9116C16.0251 10.5636 17.1179 9.47087 18.4658 9.47087C19.8138 9.47087 20.9065 10.5636 20.9065 11.9116Z" stroke="black"/>
<circle cx="13.394" cy="11.9247" r="0.984607" fill="black"/>
<path d="M18.7546 11.7059C18.7546 12.2497 18.3138 12.6905 17.77 12.6905C17.2262 12.6905 16.7854 12.2497 16.7854 11.7059C16.7854 11.1621 17.2262 10.7213 17.77 10.7213C18.3138 10.7213 18.7546 11.1621 18.7546 11.7059Z" fill="black"/>
<circle cx="16.3477" cy="15.7537" r="15.2537" stroke="black"/>
<path d="M20.2863 14.0033C19.9945 13.0552 18.864 10.8963 16.676 9.84607" stroke="black"/>
<path d="M10.8777 13.6751C11.2424 12.6175 12.5187 10.3931 14.7067 9.95546" stroke="black"/>
<path d="M18.4262 16.6289C18.4627 16.9571 18.3168 17.6135 17.4416 17.6135C16.3476 17.6135 16.1986 17.8123 15.8006 18.0511C15.2536 18.3793 14.9254 17.9417 14.4878 17.9417C14.0502 17.9417 12.628 18.5981 12.4092 16.6289" stroke="black" stroke-linecap="round"/>
<path d="M10.5493 25.8186C10.5493 24.3234 11.3151 21.2237 14.3783 21.2237C18.3168 21.2237 20.7236 20.6767 23.3492 25.8186" stroke="black" stroke-linecap="round"/>
</svg>
